<?xml version="1.0" encoding="UTF-8"?>
<svg xmlns="http://www.w3.org/2000/svg" version="1.1" viewBox="0 0 144 145.25">
  <defs>
    <style>
      .cls-1 {
        fill: #bcbec0;
      }

      .cls-2 {
        fill: #006eb5;
      }

      .cls-3 {
        fill: #fff;
        stroke: #006eb5;
        stroke-miterlimit: 10;
        stroke-width: 7.21px;
      }

      .cls-4 {
        fill: #006eb7;
        opacity: .4;
      }
    </style>
  </defs>
  <!-- Generator: Adobe Illustrator 28.6.0, SVG Export Plug-In . SVG Version: 1.2.0 Build 709)  -->
  <g>
    <g id="Layer_1">
      <path class="cls-1" d="M142.47,72.63c0,38.82-31.47,70.3-70.3,70.3S1.88,111.45,1.88,72.63,33.35,2.33,72.17,2.33s70.3,31.47,70.3,70.3Z"/>
      <path class="cls-3" d="M135.63,72.63c0,35.04-28.41,63.46-63.45,63.46S8.72,107.67,8.72,72.63,37.13,9.18,72.17,9.18s63.45,28.41,63.45,63.45Z"/>
      <path class="cls-4" d="M58.7,123.66s-11.4-27.9,18.32-49.25c39.31-28.24,9.89-53.28,9.89-53.28,0,0,6.82,22.84-19.7,41.29-41.14,28.62-8.51,61.24-8.51,61.24"/>
      <path class="cls-2" d="M67.22,62.42c23.28-16.2,20.87-35.78,19.93-40.32-2.92-7.91-8.73-12.79-8.73-12.79,0,0,7.49,22.83-19.03,41.28-39.19,27.27-11.82,57.79-9.14,60.62-5.74-12.11-8.32-31.2,16.96-48.79Z"/>
      <path class="cls-2" d="M95.5,33.08s.16.46.35,1.28c3.63,9.96,2.79,24.52-18.82,40.05-29.72,21.35-18.32,49.25-18.32,49.25,0,0-.1-.1-.28-.29,3.19,7.59,7.66,12.44,7.66,12.44,0,0-10.11-28.68,19.61-50.04,39.31-28.24,9.79-52.69,9.79-52.69Z"/>
    </g>
  </g>
<script xmlns=""/></svg>